<?xml version="1.0" encoding="UTF-8"?>
<svg id="Layer_2" data-name="Layer 2" xmlns="http://www.w3.org/2000/svg" viewBox="0 0 230.2 43.99">
  <g id="Layer_1-2" data-name="Layer 1">
    <g>
      <polygon points="27.21 18.76 7.73 18.76 7.73 .72 0 .72 0 43.27 7.73 43.27 7.73 25.41 27.21 25.41 27.21 43.27 34.94 43.27 34.94 .72 27.21 .72 27.21 18.76"/>
      <polygon points="55.02 25.17 69.34 25.17 69.34 18.52 55.02 18.52 55.02 7.37 72.76 7.37 72.76 .72 47.29 .72 47.29 43.27 73.72 43.27 73.72 36.62 55.02 36.62 55.02 25.17"/>
      <path d="m102.43,36.92c-8.87,0-14.33-7.13-14.33-15.22s5.27-14.62,14.26-14.62c6.77,0,11.63,4.5,11.63,4.5l3.72-5.75s-5.33-5.81-15.7-5.81c-12.53,0-21.88,9.47-21.88,21.82s8.99,22.18,22,22.18c10.85,0,16.72-6.89,16.72-6.89l-4.08-5.57s-4.97,5.39-12.35,5.39Z"/>
      <polygon points="122.39 7.37 136.35 7.37 136.35 37.5 140.18 36.59 140.18 43.27 147.91 43.27 147.91 34.73 144.08 35.65 144.08 7.37 158.05 7.37 158.05 .72 122.39 .72 122.39 7.37"/>
      <polygon points="172.97 .72 165.24 .72 165.24 30.61 169.07 29.7 169.07 43.27 176.8 43.27 176.8 27.84 172.97 28.75 172.97 .72"/>
      <path d="m223.94,37.1c3.86-4.18,6.26-9.61,6.26-15.34,0-2.25-.32-4.41-.92-6.43l-3.59.86C223.29,6.75,214.91,0,204.32,0,191.85,0,182.38,9.53,182.38,21.76c0,1.6.16,3.16.46,4.65l3.67-.88c1.7,10.56,10.46,18.46,21.63,18.46,3.76,0,7.26-.89,10.37-2.62l2.37,2.62h8.5l-5.48-6.87s.02-.01.02-.02Zm-15.79-.18c-7.21,0-13.02-5.54-13.85-13.25l-3.71.88c-.15-.9-.23-1.83-.23-2.8,0-8.45,6.17-14.68,13.96-14.68,6.69,0,12.13,4.47,13.65,10.96l3.61-.86c.42,1.43.65,2.96.65,4.58,0,3.11-1.16,6.58-3.1,9.36l-3.27-4.1-8.5,2.03,6.12,6.76c-1.68.71-3.52,1.11-5.33,1.11Z"/>
    </g>
  </g>
</svg>
